name ./resultDataOpenSim/trcMotMarkerGrf/sub09/grf-02-02.mot
datacolumns 19
datarows 20
range 0.48400000 0.56000000
endheader

                time	     ground_force_vx	     ground_force_vy	     ground_force_vz	     ground_force_px	     ground_force_py	     ground_force_pz	   l_ground_force_vx	   l_ground_force_vy	   l_ground_force_vz	   l_ground_force_px	   l_ground_force_py	   l_ground_force_pz	     ground_torque_x	     ground_torque_y	     ground_torque_z	   l_ground_torque_x	   l_ground_torque_y	   l_ground_torque_z	
          0.48400000	         31.54115731	        442.18847455	        -20.13597845	         -0.69387283	          0.00000000	          0.06133455	          0.00000000	          0.00000000	          0.00000000	          0.00000000	          0.00000000	          0.00000000	          0.00000000	          4.07258694	          0.00000000	          0.00000000	          0.00000000	          0.00000000	
          0.48800000	         34.13968355	        448.82954592	        -19.52246729	         -0.69230933	          0.00000000	          0.06159530	          0.00000000	          0.00000000	          0.00000000	          0.00000000	          0.00000000	          0.00000000	          0.00000000	          4.45651314	          0.00000000	          0.00000000	          0.00000000	          0.00000000	
          0.49200000	         36.33188353	        455.80872061	        -18.69868714	         -0.69058720	          0.00000000	          0.06181513	          0.00000000	          0.00000000	          0.00000000	          0.00000000	          0.00000000	          0.00000000	          0.00000000	          4.88037664	          0.00000000	          0.00000000	          0.00000000	          0.00000000	
          0.49600000	         38.24519617	        463.04321053	        -17.95410709	         -0.68871078	          0.00000000	          0.06202903	          0.00000000	          0.00000000	          0.00000000	          0.00000000	          0.00000000	          0.00000000	          0.00000000	          5.29843512	          0.00000000	          0.00000000	          0.00000000	          0.00000000	
          0.50000000	         40.09242696	        470.49490227	        -17.54517960	         -0.68670106	          0.00000000	          0.06226290	          0.00000000	          0.00000000	          0.00000000	          0.00000000	          0.00000000	          0.00000000	          0.00000000	          5.66822535	          0.00000000	          0.00000000	          0.00000000	          0.00000000	
          0.50400000	         42.10356235	        478.16393011	        -17.64853071	         -0.68459396	          0.00000000	          0.06253632	          0.00000000	          0.00000000	          0.00000000	          0.00000000	          0.00000000	          0.00000000	          0.00000000	          5.95852905	          0.00000000	          0.00000000	          0.00000000	          0.00000000	
          0.50800000	         44.45441213	        486.07340873	        -18.32864046	         -0.68243447	          0.00000000	          0.06286138	          0.00000000	          0.00000000	          0.00000000	          0.00000000	          0.00000000	          0.00000000	          0.00000000	          6.15433450	          0.00000000	          0.00000000	          0.00000000	          0.00000000	
          0.51200000	         47.21690002	        494.26431511	        -19.53169769	         -0.68024226	          0.00000000	          0.06323919	          0.00000000	          0.00000000	          0.00000000	          0.00000000	          0.00000000	          0.00000000	          0.00000000	          6.25770507	          0.00000000	          0.00000000	          0.00000000	          0.00000000	
          0.51600000	         50.34613649	        502.79486780	        -21.10737780	         -0.67803536	          0.00000000	          0.06365862	          0.00000000	          0.00000000	          0.00000000	          0.00000000	          0.00000000	          0.00000000	          0.00000000	          6.28465236	          0.00000000	          0.00000000	          0.00000000	          0.00000000	
          0.52000000	         53.70538966	        511.74003865	        -22.85269773	         -0.67583119	          0.00000000	          0.06410443	          0.00000000	          0.00000000	          0.00000000	          0.00000000	          0.00000000	          0.00000000	          0.00000000	          6.25913176	          0.00000000	          0.00000000	          0.00000000	          0.00000000	
          0.52400000	         57.11379011	        521.18867838	        -24.56644219	         -0.67365052	          0.00000000	          0.06455309	          0.00000000	          0.00000000	          0.00000000	          0.00000000	          0.00000000	          0.00000000	          0.00000000	          6.20585677	          0.00000000	          0.00000000	          0.00000000	          0.00000000	
          0.52800000	         60.39858962	        531.23399313	        -26.09782348	         -0.67151569	          0.00000000	          0.06497416	          0.00000000	          0.00000000	          0.00000000	          0.00000000	          0.00000000	          0.00000000	          0.00000000	          6.14377546	          0.00000000	          0.00000000	          0.00000000	          0.00000000	
          0.53200000	         63.44073152	        541.95984478	        -27.37439877	         -0.66945257	          0.00000000	          0.06533885	          0.00000000	          0.00000000	          0.00000000	          0.00000000	          0.00000000	          0.00000000	          0.00000000	          6.08180368	          0.00000000	          0.00000000	          0.00000000	          0.00000000	
          0.53600000	         66.20377658	        553.42315829	        -28.40150855	         -0.66749537	          0.00000000	          0.06562761	          0.00000000	          0.00000000	          0.00000000	          0.00000000	          0.00000000	          0.00000000	          0.00000000	          6.01782703	          0.00000000	          0.00000000	          0.00000000	          0.00000000	
          0.54000000	         68.73776016	        565.63351903	        -29.23428657	         -0.66567635	          0.00000000	          0.06582912	          0.00000000	          0.00000000	          0.00000000	          0.00000000	          0.00000000	          0.00000000	          0.00000000	          5.94116334	          0.00000000	          0.00000000	          0.00000000	          0.00000000	
          0.54400000	         71.15616107	        578.53967825	        -29.93103469	         -0.66402208	          0.00000000	          0.06593540	          0.00000000	          0.00000000	          0.00000000	          0.00000000	          0.00000000	          0.00000000	          0.00000000	          5.83774690	          0.00000000	          0.00000000	          0.00000000	          0.00000000	
          0.54800000	         73.59458049	        592.02847232	        -30.50625750	         -0.66254247	          0.00000000	          0.06593521	          0.00000000	          0.00000000	          0.00000000	          0.00000000	          0.00000000	          0.00000000	          0.00000000	          5.69648366	          0.00000000	          0.00000000	          0.00000000	          0.00000000	
          0.55200000	         76.16953009	        605.93887823	        -30.91314504	         -0.66121856	          0.00000000	          0.06581596	          0.00000000	          0.00000000	          0.00000000	          0.00000000	          0.00000000	          0.00000000	          0.00000000	          5.51483636	          0.00000000	          0.00000000	          0.00000000	          0.00000000	
          0.55600000	         78.95741934	        620.08637929	        -31.07213711	         -0.66001345	          0.00000000	          0.06557765	          0.00000000	          0.00000000	          0.00000000	          0.00000000	          0.00000000	          0.00000000	          0.00000000	          5.30192418	          0.00000000	          0.00000000	          0.00000000	          0.00000000	
          0.56000000	         82.00031319	        634.27728157	        -30.91271558	         -0.65889696	          0.00000000	          0.06523817	          0.00000000	          0.00000000	          0.00000000	          0.00000000	          0.00000000	          0.00000000	          0.00000000	          5.07818274	          0.00000000	          0.00000000	          0.00000000	          0.00000000	
